<svg xmlns="http://www.w3.org/2000/svg" width="27.628" height="24.176" viewBox="0 0 27.628 24.176">
  <path id="Logo" d="M3.958,23.672.5,20.218a1.727,1.727,0,0,1,2.442-2.442l2.231,2.232,5.686-5.689a1.729,1.729,0,0,1,2.445,2.446L6.4,23.672a1.732,1.732,0,0,1-2.442,0Zm15.035-2.95a1.727,1.727,0,1,1,0-3.454H25.9a1.727,1.727,0,1,1,0,3.454ZM3.958,9.853.5,6.4A1.727,1.727,0,0,1,2.947,3.958L5.178,6.192,10.864.5a1.729,1.729,0,0,1,2.445,2.445L6.4,9.856a1.732,1.732,0,0,1-1.223.505A1.708,1.708,0,0,1,3.958,9.853ZM18.994,6.907a1.727,1.727,0,0,1,0-3.455H25.9a1.727,1.727,0,0,1,0,3.455Z" transform="translate(0 0)" fill="#ffc200"/>
</svg>
