<svg xmlns="http://www.w3.org/2000/svg" width="109.123" height="114.442" viewBox="0 0 109.123 114.442">
  <g id="Group_119" data-name="Group 119" transform="translate(-1242.877 -1210)">
    <path id="ic_people_outline_24px" d="M77.882,44.681a59.455,59.455,0,0,0-22.321,4.96,58.51,58.51,0,0,0-22.321-4.96C22.477,44.681,1,50.038,1,60.8v13.64H110.123V60.8C110.123,50.038,88.646,44.681,77.882,44.681ZM58.042,67H8.44V60.8c0-2.678,12.7-8.68,24.8-8.68s24.8,6,24.8,8.68Zm44.641,0h-37.2V60.8A9.025,9.025,0,0,0,62.9,54.75a47.853,47.853,0,0,1,14.98-2.629c12.1,0,24.8,6,24.8,8.68ZM33.241,39.721A17.361,17.361,0,1,0,15.88,22.361,17.38,17.38,0,0,0,33.241,39.721Zm0-27.281a9.92,9.92,0,1,1-9.92,9.92A9.949,9.949,0,0,1,33.241,12.44ZM77.882,39.721A17.361,17.361,0,1,0,60.522,22.361,17.38,17.38,0,0,0,77.882,39.721Zm0-27.281a9.92,9.92,0,1,1-9.92,9.92A9.949,9.949,0,0,1,77.882,12.44Z" transform="translate(1241.877 1250)"/>
    <path id="ic_contact_mail_24px" d="M43.75,13.417V11.333L37.5,15.5l-6.25-4.167v2.083l6.25,4.167ZM45.833,3H4.167A4.179,4.179,0,0,0,0,7.167V36.333A4.179,4.179,0,0,0,4.167,40.5H45.833a4.161,4.161,0,0,0,4.146-4.167L50,7.167A4.179,4.179,0,0,0,45.833,3ZM16.667,9.25a6.25,6.25,0,1,1-6.25,6.25A6.242,6.242,0,0,1,16.667,9.25Zm12.5,25h-25V32.167c0-4.167,8.333-6.458,12.5-6.458s12.5,2.292,12.5,6.458Zm16.667-12.5H29.167V9.25H45.833Z" transform="translate(1302 1207)"/>
  </g>
</svg>
