<svg xmlns="http://www.w3.org/2000/svg" width="47.788" height="29.142" viewBox="0 0 47.788 29.142">
  <path id="ic_group_24px" d="M33.583,17.489a6.357,6.357,0,0,0,6.495-6.245,6.511,6.511,0,0,0-13.011,0A6.376,6.376,0,0,0,33.583,17.489Zm-17.378,0A6.357,6.357,0,0,0,22.7,11.245,6.357,6.357,0,0,0,16.205,5a6.376,6.376,0,0,0-6.517,6.245A6.376,6.376,0,0,0,16.205,17.489Zm0,4.163C11.144,21.653,1,24.088,1,28.938v5.2H31.411v-5.2C31.411,24.088,21.267,21.653,16.205,21.653Zm17.378,0c-.63,0-1.347.042-2.107.1,2.52,1.749,4.279,4.1,4.279,7.181v5.2H48.788v-5.2C48.788,24.088,38.644,21.653,33.583,21.653Z" transform="translate(-1 -5)" fill="#f0c533"/>
</svg>
