<svg xmlns="http://www.w3.org/2000/svg" width="80.115" height="50.982" viewBox="0 0 80.115 50.982"><path d="M55.624,26.85A10.925,10.925,0,1,0,44.7,15.925,10.879,10.879,0,0,0,55.624,26.85Zm-29.133,0A10.925,10.925,0,1,0,15.566,15.925,10.879,10.879,0,0,0,26.491,26.85Zm0,7.283C18.006,34.133,1,38.393,1,46.878v9.1H51.982v-9.1C51.982,38.393,34.976,34.133,26.491,34.133Zm29.133,0c-1.056,0-2.258.073-3.532.182,4.224,3.059,7.174,7.174,7.174,12.564v9.1h21.85v-9.1C81.115,38.393,64.109,34.133,55.624,34.133Z" transform="translate(-1 -5)"/></svg>