<svg xmlns="http://www.w3.org/2000/svg" width="57.915" height="57.915" viewBox="0 0 57.915 57.915"><path d="M18.374,48.332a5.791,5.791,0,1,0,5.791,5.791A5.784,5.784,0,0,0,18.374,48.332ZM1,2V7.791H6.791L17.216,29.77l-3.909,7.095a5.6,5.6,0,0,0-.724,2.78,5.809,5.809,0,0,0,5.791,5.791H53.123V39.645H19.591a.717.717,0,0,1-.724-.724l.087-.347,2.606-4.72H43.133A5.764,5.764,0,0,0,48.2,30.871L58.567,12.077a2.829,2.829,0,0,0,.347-1.39,2.9,2.9,0,0,0-2.9-2.9H13.191L10.469,2H1ZM47.332,48.332a5.791,5.791,0,1,0,5.791,5.791A5.784,5.784,0,0,0,47.332,48.332Z" transform="translate(-1 -2)"/></svg>