<svg xmlns="http://www.w3.org/2000/svg" width="93.037" height="125.395" viewBox="0 0 93.037 125.395">
  <g id="Group_120" data-name="Group 120" transform="translate(-705 -1198.605)">
    <path id="ic_mouse_24px" d="M38.6,1.07V30.722H65.507C65.507,15.466,53.782,2.9,38.6,1.07ZM4,53.157C4,69.684,17.762,83.07,34.753,83.07S65.507,69.684,65.507,53.157V38.2H4ZM30.909,1.07C15.725,2.9,4,15.466,4,30.722H30.909V1.07Z" transform="translate(732.53 1240.93)"/>
    <path id="ic_near_me_24px" d="M48,3,3,21.825v2.45L20.1,30.9,26.7,48h2.45Z" transform="translate(702 1213)"/>
    <path id="ic_wifi_tethering_24px" d="M20.22,17.576a3.644,3.644,0,1,0,3.644,3.644A3.655,3.655,0,0,0,20.22,17.576ZM31.152,21.22a10.932,10.932,0,1,0-16.4,9.456l1.822-3.17a7.288,7.288,0,1,1,7.288,0l1.822,3.17A10.926,10.926,0,0,0,31.152,21.22ZM20.22,3a18.215,18.215,0,0,0-9.128,33.98l1.822-3.152a14.585,14.585,0,1,1,14.594,0L29.33,36.98A18.208,18.208,0,0,0,20.22,3Z" transform="translate(730.037 1195.605)"/>
  </g>
</svg>
